<svg width="32" height="32" viewBox="0 0 32 32" fill="none" xmlns="http://www.w3.org/2000/svg">
<path d="M29.4545 8V24L15.7271 32L2 24V8L15.7271 0L29.4545 8Z" fill="white"/>
<path d="M15.7271 2.30938L27.4732 9.15625V22.8469L15.7271 29.6906L3.98136 22.8453V9.15625L15.7271 2.3125V2.30938ZM15.7271 0.003125L2 8V24L15.7271 32L29.4545 24V8L15.7271 0V0.003125Z" fill="#4CA3E1"/>
<path d="M10.9162 8.59198L15.7386 14.4357L20.5614 8.59198H23.0935V23.4082H20.2558V13.0039H20.1728L15.9281 18.2226H15.529L11.2839 13.0039H11.2001V23.4082H8.36206V8.59198H10.9162Z" fill="black"/>
</svg>
